<svg xmlns="http://www.w3.org/2000/svg" width="1024" height="1024" viewBox="0 0 256 256" version="1.1" class="injected-svg" data-src="https://storage.googleapis.com/illustroke-c1d67.appspot.com/Q4LuhRBSr5OYXy4gj6SmiaOJVeg1/e8khq540n0whnhnc8g5h2u-2.svg" xmlns:xlink="http://www.w3.org/1999/xlink"><rect width="1024" height="1024" fill="white"/>
	<path id="airplane" d="M 33.550 43.912 C 34.072 44.413, 42.825 49.318, 53 54.811 C 63.175 60.304, 77.097 67.932, 83.938 71.762 C 98.057 79.665, 97.416 78.763, 101.159 96 C 102.294 101.225, 103.761 106.073, 104.420 106.773 C 105.656 108.087, 106.717 107.678, 129 97.297 C 133.125 95.375, 144.600 90.223, 154.500 85.848 C 177.909 75.503, 175.390 76.646, 199 65.675 C 227.444 52.459, 240 46.182, 240 45.180 C 240 44.063, 168.172 43, 92.636 43 C 56.453 43, 32.977 43.362, 33.550 43.912 M 38 44.538 C 38 44.694, 45.313 48.761, 54.250 53.576 C 72.615 63.471, 71.156 63.198, 91.500 60.549 C 109.238 58.239, 111.530 57.978, 126.880 56.523 C 134.921 55.760, 152.750 53.983, 166.500 52.573 C 180.250 51.163, 198.475 49.581, 207 49.058 C 232.817 47.472, 231.518 46.371, 203 45.665 C 176.082 44.999, 38 44.056, 38 44.538 M 216.750 50.662 C 217.438 50.940, 218.563 50.940, 219.250 50.662 C 219.938 50.385, 219.375 50.158, 218 50.158 C 216.625 50.158, 216.063 50.385, 216.750 50.662 M 176.500 53.153 C 167.700 54.126, 151.050 55.856, 139.500 56.998 C 119.196 59.006, 89.775 62.345, 79.509 63.806 L 74.517 64.516 86.277 71.008 L 98.036 77.500 99.965 83.685 C 101.027 87.086, 102.481 92.711, 103.197 96.185 L 104.500 102.500 105 90 L 105.500 77.500 128 71.843 C 140.375 68.732, 151.850 65.937, 153.500 65.633 C 155.150 65.329, 166.175 62.801, 178 60.016 C 189.825 57.230, 202.875 54.237, 207 53.365 C 211.125 52.492, 214.719 51.572, 214.986 51.320 C 216.045 50.321, 191.597 51.485, 176.500 53.153 M 207 54.964 C 200.675 56.459, 188.300 59.340, 179.500 61.367 C 170.700 63.393, 157.425 66.606, 150 68.505 C 142.575 70.404, 135.375 72.214, 134 72.526 C 105.382 79.029, 107.071 77.562, 117.891 86.517 L 126.954 94.019 131.227 93.049 C 134.927 92.209, 149.543 85.951, 175.500 74.092 C 179.350 72.333, 183.400 70.509, 184.500 70.038 C 188.854 68.175, 217.652 54.705, 220 53.434 C 222.153 52.268, 222.222 52.092, 220.500 52.163 C 219.400 52.209, 213.325 53.469, 207 54.964 M 68 74 C 65.597 76.403, 65.462 78.786, 67.557 81.777 C 70.711 86.281, 79 83.669, 79 78.171 C 79 75.250, 75.577 72, 72.500 72 C 71.125 72, 69.100 72.900, 68 74 M 128 78 C 125.209 80.791, 125.468 84.437, 128.635 86.927 C 131.783 89.404, 133.796 89.532, 136.777 87.443 C 139.579 85.481, 139.799 80.033, 137.171 77.655 C 134.691 75.410, 130.430 75.570, 128 78 M 201.455 79.455 C 200.105 80.805, 199 83.075, 199 84.500 C 199 87.758, 203.140 92, 206.320 92 C 210.229 92, 214 88.367, 214 84.602 C 214 77.840, 206.249 74.660, 201.455 79.455 M 107 91.941 C 107 97.959, 107.408 103.134, 107.906 103.442 C 108.974 104.102, 126.139 96.858, 125.759 95.907 C 125.431 95.085, 108.181 81, 107.503 81 C 107.226 81, 107 85.923, 107 91.941 M 82.364 83.148 C 80.232 84.202, 78 87.918, 78 90.412 C 78 91.137, 78.933 92.916, 80.073 94.365 C 84.120 99.510, 93 96.372, 93 89.796 C 93 84.595, 87.010 80.850, 82.364 83.148 M 181.635 89.073 C 176.206 93.343, 179.675 102, 186.814 102 C 193.510 102, 196.407 94.317, 191.545 89.455 C 188.546 86.455, 185.130 86.323, 181.635 89.073 M 196.655 95.829 C 193.520 99.293, 195.640 105, 200.593 106.431 C 205.790 107.932, 210.334 99.476, 206.429 95.571 C 204.279 93.422, 198.700 93.569, 196.655 95.829 M 168.763 99.574 C 165.263 101.462, 164.266 105.230, 166.402 108.491 C 170.070 114.089, 178.249 112.391, 178.799 105.917 C 179.280 100.241, 173.868 96.820, 168.763 99.574 M 86.637 100.506 C 83 104.143, 83.936 109.265, 88.561 111.023 C 93.603 112.940, 98.693 108.609, 97.409 103.494 C 96.327 99.183, 89.777 97.366, 86.637 100.506 M 79.495 113.372 C 75.899 116.652, 75.590 119.266, 78.437 122.337 C 81.531 125.676, 85.322 125.769, 88.505 122.586 C 94.236 116.855, 85.486 107.907, 79.495 113.372 M 95.589 114.077 C 92.492 117.757, 92.307 121.352, 94.989 125.750 L 96.971 129 93.640 129 C 89.948 129, 87.508 131.089, 86.505 135.109 C 85.566 138.872, 89.576 143.333, 93.897 143.333 C 100.250 143.333, 103.732 135.677, 99.505 131.006 C 97.703 129.015, 97.721 128.994, 100.700 129.590 C 104.887 130.427, 109.513 127.836, 110.892 123.881 C 112.595 118.994, 112.250 117.096, 109.077 113.923 C 104.886 109.732, 99.190 109.797, 95.589 114.077 M 178.241 112.268 C 173.141 115.231, 171.105 122.591, 173.927 127.864 C 175.580 130.953, 180.871 133.992, 184.602 133.996 C 188.465 134.001, 194.064 130.331, 195.845 126.628 C 197.567 123.048, 196.625 117.838, 193.625 114.350 C 191.783 112.209, 190.286 111.621, 185.919 111.324 C 182.615 111.099, 179.619 111.468, 178.241 112.268 M 138.329 114.504 C 135.041 115.886, 134 117.663, 134 121.893 C 134 129.935, 146.121 131.828, 148.780 124.201 C 151.071 117.628, 144.781 111.791, 138.329 114.504 M 157.566 120.343 C 156.155 121.754, 155 123.830, 155 124.955 C 155 128.090, 158.535 131, 162.345 131 C 170.706 131, 171.552 120.019, 163.316 118.402 C 160.741 117.896, 159.642 118.267, 157.566 120.343 M 118.388 123.980 C 115.216 125.262, 112 129.896, 112 133.185 C 112 137.237, 114.361 141.388, 117.472 142.805 C 127.842 147.530, 138.288 135.922, 131.111 127.648 C 127.641 123.646, 122.723 122.229, 118.388 123.980 M 138.372 133.920 C 131.689 137.984, 131.443 146.740, 137.861 152.128 L 141.639 155.300 138.819 158.185 C 131.134 166.047, 139.395 179.296, 150.002 176.118 C 158.004 173.720, 160.720 164.123, 155.099 158.106 C 153.503 156.398, 151.366 154.995, 150.349 154.989 C 148.905 154.980, 149.205 154.423, 151.716 152.443 C 156.641 148.561, 157.661 143.329, 154.695 137.165 C 152.365 132.325, 143.796 130.621, 138.372 133.920 M 165.364 134.170 C 163.235 135.201, 161 138.910, 161 141.412 C 161 142.137, 161.933 143.916, 163.073 145.365 C 164.657 147.380, 166.033 148, 168.918 148 C 173.109 148, 175.449 146.085, 176.524 141.775 C 177.075 139.570, 176.628 138.474, 174.179 136.025 C 171.022 132.868, 168.952 132.432, 165.364 134.170 M 104 154 C 99.428 158.572, 102.812 167, 109.220 167 C 112.836 167, 117 162.986, 117 159.500 C 117 153.397, 108.288 149.712, 104 154 M 169 156 C 164.734 160.266, 167.595 167, 173.674 167 C 179.539 167, 182.150 160.081, 177.811 156.039 C 175.034 153.451, 171.564 153.436, 169 156 M 122.223 161.557 C 120.663 162.649, 120 164.133, 120 166.531 C 120 169.315, 120.555 170.236, 122.991 171.496 C 126.671 173.398, 130.334 172.613, 131.961 169.573 C 133.321 167.031, 133.039 162.938, 131.500 162.889 C 130.950 162.872, 130.140 162.215, 129.700 161.429 C 128.648 159.548, 125.002 159.610, 122.223 161.557 M 118.751 175.757 C 109.939 181.221, 116.204 195.497, 126.561 193.554 C 130.503 192.815, 135 187.922, 135 184.374 C 135 181.112, 132.463 176.318, 130.055 175.030 C 127.179 173.490, 121.855 173.833, 118.751 175.757 M 152.159 181.601 C 148.739 183.996, 147.715 187.548, 149.466 190.935 C 150.269 192.487, 151.654 194.037, 152.545 194.379 C 161.029 197.635, 167.781 188.690, 161.545 182.455 C 158.710 179.619, 155.417 179.319, 152.159 181.601 M 136.455 196.455 C 132.443 200.466, 133.469 206.059, 138.729 208.861 C 146.283 212.884, 153.060 201.890, 146.504 196.250 C 143.102 193.323, 139.513 193.396, 136.455 196.455 M 137.455 213.455 C 136.105 214.805, 135 216.985, 135 218.300 C 135 221.228, 138.347 224.465, 140.515 223.633 C 141.434 223.280, 141.846 223.440, 141.493 224.011 C 140.689 225.312, 142.621 225.273, 145.114 223.939 C 149.776 221.444, 149.316 214.376, 144.343 212.110 C 140.914 210.548, 140.227 210.682, 137.455 213.455" stroke="none" fill="#212121" fill-rule="evenodd" fill-opacity="1"/>
</svg>